<svg xmlns="http://www.w3.org/2000/svg" viewBox="0 0 64 64" fill="none" stroke="currentColor" stroke-width="2" stroke-linecap="round" stroke-linejoin="round">
  <g opacity="0.70">
    <path d="M6 18c6-6 12-6 18 0"/>
    <path d="M22 12c6-6 12-6 18 0"/>
    <path d="M38 18c6-6 12-6 18 0"/>
    <path d="M10 34c7-7 14-7 21 0"/>
    <path d="M30 28c7-7 14-7 21 0"/>
    <path d="M14 50c8-8 16-8 24 0"/>
    <path d="M36 46c8-8 16-8 24 0"/>
  </g>
  <g fill="currentColor" stroke="none" opacity="0.55">
    <circle cx="10" cy="10" r="1.0"/><circle cx="16" cy="20" r="0.9"/><circle cx="26" cy="16" r="0.8"/>
    <circle cx="34" cy="10" r="0.9"/><circle cx="44" cy="14" r="0.8"/><circle cx="54" cy="10" r="1.0"/>
    <circle cx="8" cy="28" r="0.9"/><circle cx="18" cy="30" r="0.8"/><circle cx="26" cy="26" r="1.0"/>
    <circle cx="38" cy="30" r="0.8"/><circle cx="46" cy="26" r="1.0"/><circle cx="56" cy="28" r="0.9"/>
    <circle cx="12" cy="42" r="0.8"/><circle cx="22" cy="44" r="1.0"/><circle cx="30" cy="40" r="0.9"/>
    <circle cx="40" cy="44" r="1.0"/><circle cx="50" cy="40" r="0.9"/><circle cx="58" cy="46" r="0.8"/>
    <circle cx="6" cy="56" r="0.9"/><circle cx="16" cy="54" r="0.8"/><circle cx="28" cy="56" r="1.0"/>
    <circle cx="38" cy="54" r="0.8"/><circle cx="52" cy="56" r="0.9"/>
  </g>

</svg>
