<svg xmlns="http://www.w3.org/2000/svg" viewBox="0 0 64 64" fill="none" stroke="currentColor" stroke-width="2" stroke-linecap="round" stroke-linejoin="round">
  <g opacity="0.70">
    <path d="M0 22l8-8 8 8 8-8 8 8 8-8 8 8 8-8 8 8"/>
    <path d="M0 40l8-8 8 8 8-8 8 8 8-8 8 8 8-8 8 8"/>
    <g opacity="0.55" stroke-width="1.6">
      <path d="M8 22l4-4 4 4"/><path d="M24 22l4-4 4 4"/><path d="M40 22l4-4 4 4"/><path d="M56 22l4-4 4 4"/>
      <path d="M8 40l4-4 4 4"/><path d="M24 40l4-4 4 4"/><path d="M40 40l4-4 4 4"/><path d="M56 40l4-4 4 4"/>
    </g>
  </g>

</svg>
